<svg width="55" height="55" viewBox="0 0 55 55" fill="none" xmlns="http://www.w3.org/2000/svg">
<path d="M45.8339 11.8078H38.6427V8.30668C38.6413 7.05171 38.1422 5.84854 37.2548 4.96114C36.3674 4.07375 35.1642 3.57461 33.9092 3.57324H21.0891C19.8341 3.57461 18.6309 4.07375 17.7435 4.96114C16.8561 5.84854 16.357 7.05171 16.3556 8.30668V11.8078H9.16609C7.23706 11.8105 5.38784 12.5781 4.02397 13.9423C2.66009 15.3065 1.8929 17.1559 1.89062 19.085V41.5851C1.89381 44.1946 2.93194 46.6962 4.77728 48.5412C6.62261 50.3863 9.12444 51.424 11.7339 51.4267H43.2747C45.8828 51.424 48.3833 50.3868 50.2277 48.5428C52.072 46.6987 53.1096 44.1984 53.1128 41.5903V19.085C53.1092 17.1558 52.3411 15.3066 50.9767 13.9426C49.6124 12.5786 47.7631 11.811 45.8339 11.8078ZM19.4511 8.30668C19.4511 7.40434 20.1867 6.66871 21.0891 6.66871H33.9092C34.8116 6.66871 35.5472 7.40434 35.5472 8.30668V11.8078H19.4511V8.30668ZM43.273 48.3312H11.7322C9.94341 48.3294 8.2284 47.6181 6.96338 46.3534C5.69836 45.0887 4.98665 43.3739 4.98438 41.5851V25.9376L11.0086 30.6264C11.9298 31.3431 13.0641 31.7315 14.2312 31.7298H23.7875C24.6417 31.7298 24.2516 30.8 24.2516 29.9457C24.2516 29.0915 24.6434 28.6343 23.7875 28.6343H14.2312C13.7483 28.6343 13.2808 28.4779 12.9112 28.1892L4.98438 22.0189V19.0867C4.98528 17.9777 5.42609 16.9145 6.21007 16.1302C6.99405 15.3459 8.05715 14.9046 9.16609 14.9032H45.8339C46.9428 14.9046 48.0059 15.3459 48.7899 16.1302C49.5739 16.9145 50.0147 17.9777 50.0156 19.0867V22.0189L42.0853 28.1926C41.7076 28.4819 41.2445 28.6373 40.7687 28.6343H31.2125C30.3583 28.6343 30.3462 29.327 30.3462 30.1812C30.3462 31.0354 30.3583 31.7281 31.2125 31.7281H40.7687C41.9409 31.7281 43.0856 31.3362 43.988 30.6281L50.0156 25.9376V41.5903C50.0133 43.3777 49.3022 45.0912 48.0381 46.3549C46.7741 47.6187 45.0604 48.3294 43.273 48.3312Z" fill="#3D74FF"/>
<path d="M29.3958 36.1865H25.606C24.7159 36.1856 23.8624 35.8317 23.2328 35.2025C22.6033 34.5732 22.2489 33.7199 22.2476 32.8298V27.5343C22.2476 25.6832 23.7549 24.1759 25.606 24.1759H29.3958C31.2469 24.1759 32.7543 25.6832 32.7543 27.5343V32.8298C32.7529 33.7199 32.3986 34.5732 31.769 35.2025C31.1394 35.8317 30.286 36.1856 29.3958 36.1865ZM25.6043 27.2697C25.5697 27.2694 25.5354 27.2761 25.5034 27.2892C25.4714 27.3023 25.4423 27.3217 25.4178 27.3462C25.3934 27.3706 25.374 27.3997 25.3609 27.4317C25.3477 27.4637 25.3411 27.498 25.3413 27.5326V32.8281C25.3413 32.9725 25.4582 33.0893 25.6043 33.0893H29.3941C29.4286 33.0896 29.4627 33.083 29.4946 33.07C29.5265 33.0569 29.5555 33.0377 29.58 33.0134C29.6044 32.9892 29.6238 32.9603 29.637 32.9285C29.6503 32.8967 29.6571 32.8625 29.6571 32.8281V27.5343C29.6573 27.4997 29.6507 27.4654 29.6375 27.4334C29.6244 27.4014 29.605 27.3723 29.5806 27.3479C29.5561 27.3234 29.527 27.3041 29.495 27.2909C29.463 27.2778 29.4287 27.2711 29.3941 27.2714L25.6043 27.2697Z" fill="#1D2331"/>
</svg>
