<svg width="55" height="55" viewBox="0 0 55 55" fill="none" xmlns="http://www.w3.org/2000/svg">
<path d="M27.5 29.1208C27.9103 29.1208 28.3037 28.9579 28.5938 28.6678C28.8839 28.3777 29.0469 27.9842 29.0469 27.574V22.2252C29.0469 21.815 28.8839 21.4215 28.5938 21.1314C28.3037 20.8413 27.9103 20.6783 27.5 20.6783C27.0897 20.6783 26.6963 20.8413 26.4062 21.1314C26.1161 21.4215 25.9531 21.815 25.9531 22.2252V27.574C25.9531 27.9842 26.1161 28.3777 26.4062 28.6678C26.6963 28.9579 27.0897 29.1208 27.5 29.1208ZM27.5 35.5335C27.9103 35.5335 28.3037 35.3705 28.5938 35.0804C28.8839 34.7903 29.0469 34.3969 29.0469 33.9866V33.5346C29.0469 33.1243 28.8839 32.7309 28.5938 32.4408C28.3037 32.1507 27.9103 31.9877 27.5 31.9877C27.0897 31.9877 26.6963 32.1507 26.4062 32.4408C26.1161 32.7309 25.9531 33.1243 25.9531 33.5346V33.9866C25.9531 34.3969 26.1161 34.7903 26.4062 35.0804C26.6963 35.3705 27.0897 35.5335 27.5 35.5335Z" fill="#1D2331"/>
<path d="M43.2661 38.7046V28.0449C43.2661 19.3514 36.1934 12.2788 27.5 12.2788C18.8066 12.2788 11.7356 19.3514 11.7356 28.0449V38.7046C8.46313 39.576 6.03281 42.5374 6.03281 46.0797V47.1247C6.03372 48.4101 6.54461 49.6425 7.45333 50.5516C8.36205 51.4606 9.59434 51.9719 10.8797 51.9733H44.1203C45.4058 51.9719 46.6383 51.4607 47.5473 50.5517C48.4563 49.6427 48.9675 48.4102 48.9689 47.1247V46.0797C48.9689 42.5374 46.5386 39.5777 43.2661 38.7046ZM27.5 15.3742C34.4867 15.3742 40.1706 21.0581 40.1706 28.0449V38.4192H14.8277V28.0449C14.8277 21.0581 20.5133 15.3742 27.5 15.3742ZM45.8734 47.1264C45.8734 48.0941 45.0863 48.8813 44.1186 48.8813H10.8797C9.91203 48.8813 9.12656 48.0941 9.12656 47.1264V46.0814C9.12838 44.871 9.61016 43.7107 10.4662 42.8549C11.3223 41.9991 12.4828 41.5178 13.6933 41.5164H41.3102C42.5206 41.5173 43.6812 41.9986 44.5371 42.8545C45.393 43.7104 45.8742 44.871 45.8752 46.0814L45.8734 47.1264ZM27.5 8.39612C27.9103 8.39612 28.3037 8.23314 28.5938 7.94305C28.8839 7.65295 29.0469 7.2595 29.0469 6.84924V4.5719C29.0469 4.16164 28.8839 3.76819 28.5938 3.47809C28.3037 3.188 27.9103 3.02502 27.5 3.02502C27.0897 3.02502 26.6963 3.188 26.4062 3.47809C26.1161 3.76819 25.9531 4.16164 25.9531 4.5719V6.84752C25.9529 7.05081 25.9927 7.25214 26.0704 7.44002C26.148 7.62789 26.2619 7.79862 26.4056 7.94244C26.5492 8.08626 26.7199 8.20036 26.9076 8.27821C27.0954 8.35605 27.2967 8.39612 27.5 8.39612ZM7.26 28.6344C7.26 28.2241 7.09703 27.8307 6.80693 27.5406C6.51684 27.2505 6.12338 27.0875 5.71312 27.0875H3.4375C3.02724 27.0875 2.63379 27.2505 2.34369 27.5406C2.0536 27.8307 1.89062 28.2241 1.89062 28.6344C1.89062 29.0447 2.0536 29.4381 2.34369 29.7282C2.63379 30.0183 3.02724 30.1813 3.4375 30.1813H5.71312C6.12338 30.1813 6.51684 30.0183 6.80693 29.7282C7.09703 29.4381 7.26 29.0447 7.26 28.6344ZM51.5625 27.0875H49.2869C48.8766 27.0875 48.4832 27.2505 48.1931 27.5406C47.903 27.8307 47.74 28.2241 47.74 28.6344C47.74 29.0447 47.903 29.4381 48.1931 29.7282C48.4832 30.0183 48.8766 30.1813 49.2869 30.1813H51.5625C51.9728 30.1813 52.3662 30.0183 52.6563 29.7282C52.9464 29.4381 53.1094 29.0447 53.1094 28.6344C53.1094 28.2241 52.9464 27.8307 52.6563 27.5406C52.3662 27.2505 51.9728 27.0875 51.5625 27.0875ZM11 14.3224C11.1428 14.4674 11.3131 14.5826 11.5008 14.6613C11.6885 14.74 11.8901 14.7806 12.0936 14.7808C12.2972 14.781 12.4988 14.7407 12.6866 14.6623C12.8745 14.5839 13.0449 14.4689 13.188 14.3241C13.3318 14.1807 13.4459 14.0103 13.5238 13.8228C13.6017 13.6352 13.6418 13.4341 13.6418 13.231C13.6418 13.0279 13.6017 12.8268 13.5238 12.6392C13.4459 12.4516 13.3318 12.2812 13.188 12.1378L11.5792 10.5274C11.4368 10.3786 11.2661 10.2598 11.0772 10.1779C10.8883 10.0959 10.6849 10.0526 10.479 10.0503C10.2731 10.048 10.0688 10.0868 9.87807 10.1645C9.68737 10.2423 9.5141 10.3573 9.36843 10.5028C9.22276 10.6484 9.10762 10.8215 9.02976 11.0122C8.9519 11.2028 8.91289 11.4071 8.91502 11.613C8.91714 11.8189 8.96036 12.0224 9.04214 12.2113C9.12392 12.4003 9.24261 12.5711 9.39125 12.7136L11 14.3224ZM42.9052 14.7778C43.3005 14.7778 43.6975 14.6266 44 14.3241L45.6105 12.7136C45.7541 12.57 45.8681 12.3994 45.9458 12.2117C46.0236 12.024 46.0636 11.8228 46.0636 11.6196C46.0636 11.4165 46.0236 11.2153 45.9458 11.0276C45.8681 10.8399 45.7541 10.6693 45.6105 10.5257C45.4668 10.382 45.2963 10.268 45.1085 10.1903C44.9208 10.1125 44.7197 10.0725 44.5165 10.0725C44.3133 10.0725 44.1121 10.1125 43.9244 10.1903C43.7367 10.268 43.5662 10.382 43.4225 10.5257L41.812 12.1361C41.5954 12.3524 41.4478 12.628 41.3878 12.9282C41.3279 13.2284 41.3584 13.5396 41.4755 13.8224C41.5925 14.1053 41.7908 14.347 42.0453 14.5171C42.2998 14.6872 42.5991 14.7779 42.9052 14.7778Z" fill="#3D74FF"/>
</svg>
