<svg width="47" height="53" viewBox="0 0 47 53" fill="none" xmlns="http://www.w3.org/2000/svg">
<path d="M40.8904 0.890625H6.10976C4.50818 0.892898 2.97285 1.53013 1.84036 2.66262C0.707866 3.79511 0.0706327 5.33045 0.0683594 6.93203V46.068C0.0701781 47.6698 0.707211 49.2056 1.83975 50.3385C2.97229 51.4713 4.50788 52.1088 6.10976 52.1111H40.8904C42.4923 52.1088 44.0279 51.4713 45.1604 50.3385C46.2929 49.2056 46.93 47.6698 46.9318 46.068V6.93203C46.9295 5.33045 46.2923 3.79511 45.1598 2.66262C44.0273 1.53013 42.492 0.892898 40.8904 0.890625ZM43.8363 46.068C43.8363 47.6922 42.5146 49.0156 40.8904 49.0156H6.10976C4.48555 49.0156 3.16383 47.6922 3.16383 46.068V6.93203C3.16383 5.30781 4.48555 3.98438 6.10976 3.98438H40.8904C42.5146 3.98438 43.8363 5.30781 43.8363 6.93203V46.068Z" fill="#3D74FF"/>
<path d="M33.8678 33.021H13.1328C12.7226 33.021 12.3291 33.184 12.039 33.4741C11.7489 33.7642 11.5859 34.1576 11.5859 34.5679C11.5859 34.9781 11.7489 35.3716 12.039 35.6617C12.3291 35.9518 12.7226 36.1147 13.1328 36.1147H33.8678C34.2781 36.1147 34.6715 35.9518 34.9616 35.6617C35.2517 35.3716 35.4147 34.9781 35.4147 34.5679C35.4147 34.1576 35.2517 33.7642 34.9616 33.4741C34.6715 33.184 34.2781 33.021 33.8678 33.021ZM29.4747 40.1779H17.5277C17.1174 40.1779 16.7239 40.3408 16.4339 40.6309C16.1438 40.921 15.9808 41.3145 15.9808 41.7247C15.9808 42.135 16.1438 42.5285 16.4339 42.8186C16.7239 43.1086 17.1174 43.2716 17.5277 43.2716H29.4747C29.8849 43.2716 30.2784 43.1086 30.5685 42.8186C30.8586 42.5285 31.0216 42.135 31.0216 41.7247C31.0216 41.3145 30.8586 40.921 30.5685 40.6309C30.2784 40.3408 29.8849 40.1779 29.4747 40.1779Z" fill="#3D74FF"/>
<path d="M15.4046 28.9698C15.5777 29.0761 15.7701 29.1473 15.9707 29.1793C16.1713 29.2113 16.3763 29.2034 16.5739 29.1562C16.7715 29.1089 16.9578 29.0232 17.1223 28.9039C17.2868 28.7847 17.4261 28.6342 17.5324 28.461C18.311 27.196 20.4577 25.919 23.4999 25.919C26.5421 25.919 28.6888 27.196 29.4674 28.461C29.6821 28.8107 30.0269 29.0607 30.426 29.1561C30.825 29.2515 31.2456 29.1845 31.5952 28.9698C31.9449 28.7551 32.1949 28.4103 32.2903 28.0112C32.3857 27.6122 32.3187 27.1916 32.104 26.842C31.3684 25.6457 30.1773 24.6592 28.718 23.9631C30.4643 22.4764 31.597 20.2918 31.597 17.8254C31.597 13.3618 27.9652 9.7301 23.5016 9.7301C19.038 9.7301 15.4063 13.3618 15.4063 17.8254C15.4063 20.2918 16.539 22.4781 18.2852 23.9631C16.826 24.6609 15.6349 25.6457 14.8993 26.842C14.7926 27.0148 14.721 27.207 14.6887 27.4075C14.6563 27.6081 14.6638 27.813 14.7108 28.0107C14.7577 28.2083 14.8431 28.3947 14.9622 28.5593C15.0812 28.7239 15.2316 28.8634 15.4046 28.9698ZM18.5001 17.8237C18.5001 15.0668 20.7431 12.8221 23.4999 12.8221C26.2568 12.8221 28.4998 15.0668 28.4998 17.8237C28.4998 20.5806 26.2568 22.8253 23.4999 22.8253C20.7431 22.8253 18.5001 20.5806 18.5001 17.8237Z" fill="#1D2331"/>
</svg>
