<svg width="55" height="55" viewBox="0 0 55 55" fill="none" xmlns="http://www.w3.org/2000/svg">
<path d="M43.5086 18.425H37.0134L31.7644 9.84328C32.3058 9.03203 32.6237 8.05922 32.6237 7.0125C32.6237 4.18687 30.3258 1.89062 27.5019 1.89062C24.6779 1.89062 22.38 4.18859 22.38 7.0125C22.38 8.05922 22.698 9.03031 23.2394 9.84328L17.9903 18.425H11.4917C7.79639 18.425 4.78857 21.4328 4.78857 25.1281V46.4062C4.78857 50.1016 7.79639 53.1094 11.4917 53.1094H43.5103C47.2056 53.1094 50.2134 50.1016 50.2134 46.4062V25.1281C50.2134 21.4328 47.2056 18.425 43.5086 18.425ZM27.5001 4.98438C28.6173 4.98438 29.5283 5.89359 29.5283 7.0125C29.5283 8.13141 28.6173 9.04063 27.5001 9.04063C26.383 9.04063 25.472 8.13141 25.472 7.0125C25.472 5.89359 26.383 4.98438 27.5001 4.98438ZM25.6748 11.7838C26.2437 12.002 26.8556 12.1361 27.5001 12.1361C28.1447 12.1361 28.7565 12.0037 29.3255 11.7855L33.3886 18.4267H21.6134L25.6748 11.7838ZM47.118 46.4062C47.118 48.3966 45.5006 50.0156 43.5086 50.0156H11.4917C9.50139 50.0156 7.88232 48.3983 7.88232 46.4062V25.1281C7.88232 23.1378 9.49967 21.5187 11.4917 21.5187H43.5103C45.5006 21.5187 47.1197 23.1361 47.1197 25.1281V46.4062H47.118Z" fill="#3D74FF"/>
<path d="M34.7273 31.3191L29.5865 27.8162C28.973 27.393 28.2453 27.1664 27.5 27.1664C26.7546 27.1664 26.0269 27.393 25.4134 27.8162L20.2726 31.3191C19.7739 31.6587 19.3658 32.1153 19.0839 32.6488C18.802 33.1823 18.6548 33.7767 18.6553 34.3801V40.657C18.6571 41.6393 19.0481 42.5807 19.7426 43.2753C20.4372 43.9698 21.3787 44.3608 22.3609 44.3626H32.639C33.6213 44.3608 34.5627 43.9698 35.2573 43.2753C35.9518 42.5807 36.3428 41.6393 36.3447 40.657V34.3801C36.3447 33.153 35.7396 32.0083 34.7273 31.3191ZM33.2509 40.657C33.2509 40.8188 33.1866 40.974 33.0722 41.0885C32.9578 41.2029 32.8026 41.2672 32.6407 41.2672H22.3626C22.2008 41.2672 22.0456 41.2029 21.9312 41.0885C21.8167 40.974 21.7525 40.8188 21.7525 40.657V34.3801C21.7525 34.1773 21.8521 33.9883 22.0171 33.8748L27.1562 30.3703C27.2577 30.3017 27.3774 30.265 27.5 30.265C27.6225 30.265 27.7422 30.3017 27.8437 30.3703L32.9845 33.8766C33.0666 33.9322 33.1338 34.0073 33.1799 34.0952C33.2261 34.183 33.2499 34.2809 33.2492 34.3801V40.657H33.2509Z" fill="#1D2331"/>
</svg>
