<svg width="55" height="55" viewBox="0 0 55 55" fill="none" xmlns="http://www.w3.org/2000/svg">
<path d="M35.6933 14.4771C36.2725 13.901 36.7318 13.2159 37.0445 12.4612C37.3572 11.7066 37.5172 10.8974 37.5152 10.0805C37.5152 8.41848 36.8672 6.85785 35.6899 5.68051C34.6204 4.61571 33.2012 3.97476 31.6953 3.87647C30.1893 3.77818 28.6988 4.22922 27.5 5.14598C26.3007 4.22884 24.8094 3.77776 23.3028 3.87637C21.7961 3.97497 20.3764 4.61659 19.3068 5.68223C18.7274 6.25851 18.2681 6.94396 17.9554 7.69891C17.6426 8.45387 17.4827 9.26335 17.4849 10.0805C17.4849 11.7408 18.1329 13.3032 19.3068 14.4771L25.123 20.2933C25.7796 20.9482 26.6389 21.2764 27.5 21.2764C28.3611 21.2764 29.2205 20.9499 29.8771 20.2933L35.6933 14.4771ZM27.3127 18.1071L21.4964 12.2908C20.9052 11.6996 20.5804 10.9158 20.5804 10.0805C20.5804 9.24519 20.9052 8.46144 21.4999 7.86676C21.7897 7.57656 22.134 7.34653 22.5131 7.1899C22.8921 7.03327 23.2984 6.95313 23.7085 6.9541C24.5077 6.9541 25.3086 7.2566 25.9153 7.86332L26.211 8.15723C26.8985 8.84473 28.0999 8.84473 28.7874 8.15894L29.083 7.86332C29.6732 7.2934 30.4637 6.97819 31.2842 6.98561C32.1046 6.99302 32.8893 7.32248 33.4691 7.90297C34.0489 8.48347 34.3774 9.26853 34.3839 10.089C34.3904 10.9094 34.0742 11.6995 33.5036 12.2891L27.6874 18.1054C27.6629 18.1301 27.6338 18.1498 27.6017 18.1633C27.5696 18.1767 27.5352 18.1838 27.5004 18.1839C27.4656 18.1841 27.4311 18.1774 27.3989 18.1642C27.3667 18.151 27.3374 18.1316 27.3127 18.1071Z" fill="#1D2331"/>
<path d="M19.3755 37.0511C21.1441 35.4475 22.2767 33.1564 22.2767 30.5869C22.2767 25.7589 18.3494 21.8315 13.5214 21.8315C8.69343 21.8315 4.76609 25.7589 4.76609 30.5869C4.76609 33.1564 5.89875 35.4475 7.66734 37.0511C5.95217 37.799 4.49225 39.0307 3.46626 40.5955C2.44027 42.1603 1.89272 43.9903 1.89062 45.8614V47.0147C1.89062 48.6166 3.02844 49.995 4.59422 50.2941C10.4935 51.4213 16.5528 51.4213 22.452 50.2941C23.2136 50.1463 23.9 49.738 24.3934 49.1393C24.8867 48.5406 25.1562 47.7888 25.1556 47.013V45.8597C25.1538 43.9882 24.6059 42.158 23.5792 40.5934C22.5525 39.0287 21.0915 37.7976 19.3755 37.0511ZM13.5231 24.9253C16.6444 24.9253 19.183 27.4656 19.183 30.5869C19.183 33.7081 16.6461 36.2484 13.5231 36.2484C10.4002 36.2484 7.86328 33.7081 7.86328 30.5869C7.86328 27.4656 10.4019 24.9253 13.5231 24.9253ZM22.0619 47.0147C22.0635 47.071 22.0453 47.1261 22.0104 47.1704C21.9755 47.2147 21.9262 47.2454 21.8711 47.257C16.3917 48.3072 10.6648 48.3089 5.17515 47.257C5.1203 47.2457 5.07123 47.2153 5.03663 47.1713C5.00202 47.1272 4.98412 47.0724 4.98609 47.0164V45.8631C4.98791 44.1347 5.67534 42.4775 6.89754 41.2553C8.11973 40.0331 9.77686 39.3457 11.5053 39.3439H15.5444C17.2728 39.3457 18.9299 40.0331 20.1521 41.2553C21.3743 42.4775 22.0618 44.1347 22.0636 45.8631L22.0619 47.0147ZM47.3292 37.0511C49.0978 35.4475 50.2304 33.1564 50.2304 30.5869C50.2304 25.7589 46.3031 21.8315 41.4751 21.8315C36.6472 21.8315 32.7198 25.7589 32.7198 30.5869C32.7198 33.1564 33.8525 35.4475 35.6211 37.0511C33.9051 37.7983 32.4444 39.0298 31.4177 40.5946C30.3911 42.1595 29.8431 43.9898 29.8409 45.8614V47.0147C29.8409 48.6166 30.9787 49.995 32.5428 50.2941C38.4426 51.4214 44.5025 51.4214 50.4023 50.2941C51.1639 50.1463 51.8503 49.738 52.3437 49.1393C52.837 48.5406 53.1065 47.7888 53.1059 47.013V45.8597C53.105 43.9885 52.5579 42.1582 51.5318 40.5935C50.5056 39.0288 49.045 37.7976 47.3292 37.0511ZM41.4769 24.9253C44.5981 24.9253 47.1367 27.4656 47.1367 30.5869C47.1367 33.7081 44.5981 36.2484 41.4769 36.2484C38.3556 36.2484 35.817 33.7081 35.817 30.5869C35.817 27.4656 38.3539 24.9253 41.4769 24.9253ZM50.0156 47.0147C50.0173 47.0708 49.9993 47.1257 49.9648 47.17C49.9303 47.2142 49.8814 47.245 49.8265 47.257C44.3102 48.3072 38.6452 48.3072 33.1289 47.257C33.074 47.2457 33.025 47.2153 32.9904 47.1713C32.9558 47.1272 32.9379 47.0724 32.9398 47.0164V45.8631C32.9417 44.1347 33.6291 42.4775 34.8513 41.2553C36.0735 40.0331 37.7306 39.3457 39.459 39.3439H43.4981C45.2266 39.3457 46.8837 40.0331 48.1059 41.2553C49.3281 42.4775 50.0155 44.1347 50.0173 45.8631L50.0156 47.0147Z" fill="#3D74FF"/>
</svg>
