<svg width="239" height="60" viewBox="0 0 239 60" fill="none" xmlns="http://www.w3.org/2000/svg">
<path d="M14.5538 37.246C12.5807 37.246 10.8429 36.8553 9.34043 36.074C7.83797 35.2926 6.66134 34.1578 5.81055 32.6695C4.97787 31.1626 4.56152 29.386 4.56152 27.3396C4.56152 25.2374 5.02312 23.3956 5.94632 21.8143C6.88762 20.233 8.1819 19.0144 9.82918 18.1587C11.4764 17.3029 13.3228 16.875 15.3684 16.875C16.5088 16.875 17.613 17.0052 18.681 17.2657C19.7671 17.5261 20.627 17.8145 21.2605 18.1307V24.4095H20.989C20.1744 22.3445 19.1969 20.7167 18.0565 19.526C16.9342 18.3168 15.7575 17.7122 14.5266 17.7122C13.6577 17.7122 12.8612 17.9633 12.1372 18.4656C11.4131 18.9679 10.8248 19.7772 10.3722 20.8934C9.93779 21.991 9.72057 23.3956 9.72057 25.1071C9.72057 27.2093 10.0464 29.079 10.6981 30.7161C11.3678 32.3533 12.2277 33.6183 13.2776 34.5113C14.3456 35.4043 15.4679 35.8507 16.6445 35.8507H17.3234V31.2463C17.3234 30.3162 17.2057 29.4976 16.9704 28.7907C16.7351 28.0837 16.3549 27.4605 15.83 26.921V26.7815H23.297V26.921C22.8987 27.4605 22.6182 28.0837 22.4553 28.7907C22.2923 29.479 22.2109 30.2976 22.2109 31.2463V34.7345C21.2696 35.4601 20.102 36.0647 18.7082 36.5484C17.3324 37.0135 15.9476 37.246 14.5538 37.246Z" fill="#1D2331"/>
<path d="M25.2041 36.6879C25.4756 36.2786 25.6747 35.7484 25.8014 35.0973C25.9462 34.4276 26.0186 33.702 26.0186 32.9207V28.1209C26.0186 27.1907 25.9281 26.4466 25.7471 25.8885C25.5661 25.3304 25.2946 24.8653 24.9325 24.4932V24.3537L30.9062 22.4561H31.0419V26.921H31.1777C31.7388 23.9444 33.3499 22.4561 36.0109 22.4561V26.921H34.1645C33.006 26.921 32.1914 27.1535 31.7207 27.6186C31.2682 28.0837 31.0419 28.9209 31.0419 30.1301V32.9207C31.0419 33.702 31.1053 34.4276 31.232 35.0973C31.3768 35.7484 31.585 36.2786 31.8565 36.6879V36.8274H25.2041V36.6879Z" fill="#1D2331"/>
<path d="M49.8654 31.8045C49.5215 33.4788 48.7793 34.8089 47.6389 35.7949C46.4985 36.7623 45.1137 37.246 43.4845 37.246C42.2355 37.246 41.1041 36.967 40.0904 36.4089C39.0948 35.8508 38.2983 35.0322 37.7009 33.9532C37.1217 32.8742 36.8321 31.5905 36.8321 30.1022C36.8321 28.6139 37.1398 27.2931 37.7552 26.1396C38.3888 24.9676 39.2396 24.0653 40.3076 23.4328C41.3937 22.7817 42.5885 22.4561 43.8918 22.4561C45.0684 22.4561 46.1002 22.7073 46.9872 23.2096C47.8742 23.6932 48.553 24.3537 49.0237 25.1908C49.4943 26.0094 49.7297 26.9117 49.7297 27.8977H40.8235C40.9683 29.1069 41.2942 30.1394 41.801 30.9952C42.326 31.851 42.9686 32.5021 43.7289 32.9486C44.4892 33.3951 45.3128 33.6183 46.1998 33.6183C46.942 33.6183 47.6027 33.4602 48.1819 33.1439C48.7793 32.809 49.25 32.3626 49.5939 31.8045H49.8654ZM42.6699 23.2375C42.0182 23.2375 41.5295 23.5351 41.2037 24.1304C40.8959 24.7071 40.7421 25.5257 40.7421 26.5861C40.7421 26.8652 40.7511 27.0698 40.7692 27.2H44.9779C44.9055 26.0094 44.6611 25.0513 44.2448 24.3258C43.8465 23.6002 43.3216 23.2375 42.6699 23.2375Z" fill="#1D2331"/>
<path d="M64.2639 31.8045C63.9199 33.4788 63.1777 34.8089 62.0373 35.7949C60.8969 36.7623 59.5121 37.246 57.8829 37.246C56.6339 37.246 55.5025 36.967 54.4888 36.4089C53.4932 35.8508 52.6967 35.0322 52.0994 33.9532C51.5201 32.8742 51.2305 31.5905 51.2305 30.1022C51.2305 28.6139 51.5382 27.2931 52.1537 26.1396C52.7872 24.9676 53.638 24.0653 54.7061 23.4328C55.7922 22.7817 56.9869 22.4561 58.2902 22.4561C59.4669 22.4561 60.4987 22.7073 61.3857 23.2096C62.2726 23.6932 62.9515 24.3537 63.4221 25.1908C63.8928 26.0094 64.1281 26.9117 64.1281 27.8977H55.222C55.3668 29.1069 55.6926 30.1394 56.1995 30.9952C56.7244 31.851 57.367 32.5021 58.1273 32.9486C58.8876 33.3951 59.7112 33.6183 60.5982 33.6183C61.3404 33.6183 62.0011 33.4602 62.5804 33.1439C63.1777 32.809 63.6484 32.3626 63.9923 31.8045H64.2639ZM57.0683 23.2375C56.4167 23.2375 55.9279 23.5351 55.6021 24.1304C55.2944 24.7071 55.1405 25.5257 55.1405 26.5861C55.1405 26.8652 55.1495 27.0698 55.1676 27.2H59.3763C59.3039 26.0094 59.0596 25.0513 58.6432 24.3258C58.245 23.6002 57.72 23.2375 57.0683 23.2375Z" fill="#1D2331"/>
<path d="M66.172 36.6879C66.4435 36.2786 66.6426 35.7484 66.7693 35.0973C66.9142 34.4276 66.9866 33.702 66.9866 32.9207V28.1209C66.9866 27.1907 66.8961 26.4466 66.715 25.8885C66.534 25.3304 66.2625 24.8653 65.9005 24.4932V24.3537L71.8741 22.4561H72.0098V25.1071H72.1456C72.5257 24.3258 73.0598 23.6932 73.7476 23.2096C74.4536 22.7073 75.2953 22.4561 76.2728 22.4561C77.54 22.4561 78.5537 22.8654 79.314 23.6839C80.0742 24.5025 80.4544 25.5815 80.4544 26.921V32.9207C80.4544 33.702 80.5177 34.4276 80.6444 35.0973C80.7893 35.7484 80.9974 36.2786 81.269 36.6879V36.8274H74.6165V36.6879C74.888 36.2786 75.0872 35.7484 75.2139 35.0973C75.3587 34.4276 75.4311 33.702 75.4311 32.9207V27.0605C75.4311 26.5396 75.2772 26.1117 74.9695 25.7769C74.6618 25.4234 74.2545 25.2467 73.7476 25.2467C73.2589 25.2467 72.8425 25.4141 72.4986 25.749C72.1728 26.0652 72.0098 26.5024 72.0098 27.0605V32.9207C72.0098 33.702 72.0732 34.4276 72.1999 35.0973C72.3447 35.7484 72.5529 36.2786 72.8244 36.6879V36.8274H66.172V36.6879Z" fill="#1D2331"/>
<path d="M101.623 22.8747H105.153V23.0142C104.701 23.4793 104.302 24.0002 103.959 24.5769C103.633 25.135 103.307 25.8699 102.981 26.7815L99.4512 36.8274H96.8717L93.4776 27.8977L90.355 36.8274H87.7755L83.9741 26.7815C83.3043 24.9583 82.6255 23.7025 81.9376 23.0142V22.8747H89.2689V23.0142C88.9792 23.4979 88.8344 24.0467 88.8344 24.6606C88.8344 25.2932 88.9792 26.0001 89.2689 26.7815L91.251 32.1114L93.0431 26.7815C92.3552 24.9397 91.6855 23.6839 91.0338 23.0142V22.8747H98.7724V23.0142C98.2836 23.5165 98.0392 24.2048 98.0392 25.0792C98.0392 25.6001 98.1479 26.1675 98.3651 26.7815L100.347 32.1114L102.058 27.0605C102.275 26.4652 102.384 25.8513 102.384 25.2188C102.384 24.27 102.13 23.5351 101.623 23.0142V22.8747Z" fill="#1D2331"/>
<path d="M119.767 35.4322C119.495 35.9903 119.043 36.4368 118.409 36.7716C117.776 37.0879 117.061 37.246 116.264 37.246C114.689 37.246 113.612 36.5577 113.033 35.181H112.897C112.155 36.5577 110.906 37.246 109.15 37.246C108.028 37.246 107.15 36.9763 106.516 36.4368C105.883 35.8973 105.566 35.1252 105.566 34.1206C105.566 33.0788 105.919 32.1951 106.625 31.4696C107.331 30.744 108.245 30.2045 109.367 29.8511C110.508 29.479 111.711 29.293 112.979 29.293V28.1767C112.979 27.1163 112.68 26.2699 112.083 25.6373C111.485 25.0048 110.643 24.6885 109.557 24.6885C108.779 24.6885 108.091 24.856 107.494 25.1908C106.914 25.5257 106.453 26.0094 106.109 26.6419H105.837C106.163 25.3397 106.878 24.3165 107.982 23.5723C109.105 22.8282 110.426 22.4561 111.947 22.4561C113.848 22.4561 115.332 22.9863 116.4 24.0467C117.468 25.0885 118.002 26.4652 118.002 28.1767V34.3159C118.002 35.1531 118.292 35.5717 118.871 35.5717C119.197 35.5717 119.45 35.4787 119.631 35.2926L119.767 35.4322ZM111.865 34.8741C112.481 34.8741 112.852 34.5857 112.979 34.009V29.9906C112.291 30.065 111.739 30.3534 111.322 30.8557C110.924 31.358 110.725 32.0463 110.725 32.9207C110.725 34.2229 111.105 34.8741 111.865 34.8741Z" fill="#1D2331"/>
<path d="M120.034 39.0599H121.392C122.75 39.0599 123.863 38.9297 124.732 38.6692C125.601 38.4088 126.252 37.9809 126.687 37.3856L121.663 26.7815C120.903 25.1629 120.089 23.9072 119.22 23.0142V22.8747H127.23V23.0142C126.886 23.4607 126.714 24.0188 126.714 24.6885C126.714 25.3583 126.886 26.0559 127.23 26.7815L129.293 31.3022L131.167 27.0605C131.547 26.2047 131.737 25.442 131.737 24.7723C131.737 24.1025 131.547 23.5165 131.167 23.0142V22.8747H134.697V23.0142C134.19 23.5351 133.728 24.0839 133.312 24.6606C132.896 25.2374 132.507 25.9257 132.144 26.7256L127.637 36.8274C127.022 38.2227 126.451 39.3017 125.926 40.0645C125.402 40.8458 124.668 41.4784 123.727 41.9621C122.804 42.4458 121.573 42.6876 120.034 42.6876V39.0599Z" fill="#1D2331"/>
<path d="M141.614 36.6879C142.013 36.1484 142.293 35.5345 142.456 34.8462C142.619 34.1392 142.701 33.3113 142.701 32.3626V21.7585C142.701 20.8097 142.619 19.9911 142.456 19.3028C142.293 18.5958 142.013 17.9726 141.614 17.4331V17.2936H149.217V17.4331C148.819 17.9726 148.538 18.5958 148.376 19.3028C148.213 19.9911 148.131 20.8097 148.131 21.7585V35.9903H149.217C150.665 35.9903 151.869 35.7763 152.829 35.3485C153.788 34.9206 154.575 34.3066 155.191 33.5067C155.824 32.7067 156.404 31.6742 156.929 30.4092H157.2L156.413 36.8274H141.614V36.6879Z" fill="#1D2331"/>
<path d="M171.819 35.4322C171.547 35.9903 171.095 36.4368 170.461 36.7716C169.827 37.0879 169.112 37.246 168.316 37.246C166.741 37.246 165.664 36.5577 165.085 35.181H164.949C164.207 36.5577 162.958 37.246 161.202 37.246C160.08 37.246 159.202 36.9763 158.568 36.4368C157.934 35.8973 157.618 35.1252 157.618 34.1206C157.618 33.0788 157.971 32.1951 158.677 31.4696C159.383 30.744 160.297 30.2045 161.419 29.8511C162.56 29.479 163.763 29.293 165.03 29.293V28.1767C165.03 27.1163 164.732 26.2699 164.134 25.6373C163.537 25.0048 162.695 24.6885 161.609 24.6885C160.831 24.6885 160.143 24.856 159.546 25.1908C158.966 25.5257 158.505 26.0094 158.161 26.6419H157.889C158.215 25.3397 158.93 24.3165 160.034 23.5723C161.157 22.8282 162.478 22.4561 163.999 22.4561C165.899 22.4561 167.384 22.9863 168.452 24.0467C169.52 25.0885 170.054 26.4652 170.054 28.1767V34.3159C170.054 35.1531 170.343 35.5717 170.923 35.5717C171.248 35.5717 171.502 35.4787 171.683 35.2926L171.819 35.4322ZM163.917 34.8741C164.533 34.8741 164.904 34.5857 165.03 34.009V29.9906C164.343 30.065 163.79 30.3534 163.374 30.8557C162.976 31.358 162.777 32.0463 162.777 32.9207C162.777 34.2229 163.157 34.8741 163.917 34.8741Z" fill="#1D2331"/>
<path d="M190.957 22.8747H194.487V23.0142C194.035 23.4793 193.636 24.0002 193.292 24.5769C192.967 25.135 192.641 25.8699 192.315 26.7815L188.785 36.8274H186.206L182.812 27.8977L179.689 36.8274H177.109L173.308 26.7815C172.638 24.9583 171.959 23.7025 171.272 23.0142V22.8747H178.603V23.0142C178.313 23.4979 178.168 24.0467 178.168 24.6606C178.168 25.2932 178.313 26.0001 178.603 26.7815L180.585 32.1114L182.377 26.7815C181.689 24.9397 181.019 23.6839 180.368 23.0142V22.8747H188.106V23.0142C187.618 23.5165 187.373 24.2048 187.373 25.0792C187.373 25.6001 187.482 26.1675 187.699 26.7815L189.681 32.1114L191.392 27.0605C191.609 26.4652 191.718 25.8513 191.718 25.2188C191.718 24.27 191.464 23.5351 190.957 23.0142V22.8747Z" fill="#1D2331"/>
<path d="M194.493 39.0599H195.85C197.208 39.0599 198.321 38.9297 199.19 38.6692C200.059 38.4088 200.711 37.9809 201.145 37.3856L196.122 26.7815C195.361 25.1629 194.547 23.9072 193.678 23.0142V22.8747H201.688V23.0142C201.344 23.4607 201.172 24.0188 201.172 24.6885C201.172 25.3583 201.344 26.0559 201.688 26.7815L203.752 31.3022L205.625 27.0605C206.005 26.2047 206.195 25.442 206.195 24.7723C206.195 24.1025 206.005 23.5165 205.625 23.0142V22.8747H209.155V23.0142C208.648 23.5351 208.187 24.0839 207.77 24.6606C207.354 25.2374 206.965 25.9257 206.603 26.7256L202.095 36.8274C201.48 38.2227 200.91 39.3017 200.385 40.0645C199.86 40.8458 199.127 41.4784 198.185 41.9621C197.262 42.4458 196.031 42.6876 194.493 42.6876V39.0599Z" fill="#1D2331"/>
<path d="M222.461 31.8045C222.117 33.4788 221.375 34.8089 220.234 35.7949C219.094 36.7623 217.709 37.246 216.08 37.246C214.831 37.246 213.7 36.967 212.686 36.4089C211.69 35.8508 210.894 35.0322 210.297 33.9532C209.717 32.8742 209.428 31.5905 209.428 30.1022C209.428 28.6139 209.735 27.2931 210.351 26.1396C210.984 24.9676 211.835 24.0653 212.903 23.4328C213.989 22.7817 215.184 22.4561 216.487 22.4561C217.664 22.4561 218.696 22.7073 219.583 23.2096C220.47 23.6932 221.149 24.3537 221.619 25.1908C222.09 26.0094 222.325 26.9117 222.325 27.8977H213.419C213.564 29.1069 213.89 30.1394 214.397 30.9952C214.922 31.851 215.564 32.5021 216.324 32.9486C217.085 33.3951 217.908 33.6183 218.795 33.6183C219.538 33.6183 220.198 33.4602 220.778 33.1439C221.375 32.809 221.846 32.3626 222.189 31.8045H222.461ZM215.266 23.2375C214.614 23.2375 214.125 23.5351 213.799 24.1304C213.492 24.7071 213.338 25.5257 213.338 26.5861C213.338 26.8652 213.347 27.0698 213.365 27.2H217.574C217.501 26.0094 217.257 25.0513 216.84 24.3258C216.442 23.6002 215.917 23.2375 215.266 23.2375Z" fill="#1D2331"/>
<path d="M224.369 36.6879C224.641 36.2786 224.84 35.7484 224.967 35.0973C225.111 34.4276 225.184 33.702 225.184 32.9207V28.1209C225.184 27.1907 225.093 26.4466 224.912 25.8885C224.731 25.3304 224.46 24.8653 224.098 24.4932V24.3537L230.071 22.4561H230.207V26.921H230.343C230.904 23.9444 232.515 22.4561 235.176 22.4561V26.921H233.33C232.171 26.921 231.356 27.1535 230.886 27.6186C230.433 28.0837 230.207 28.9209 230.207 30.1301V32.9207C230.207 33.702 230.27 34.4276 230.397 35.0973C230.542 35.7484 230.75 36.2786 231.022 36.6879V36.8274H224.369V36.6879Z" fill="#1D2331"/>
</svg>
