<svg width="55" height="55" viewBox="0 0 55 55" fill="none" xmlns="http://www.w3.org/2000/svg">
<path d="M44.8285 1.89062H17.6894C16.0396 1.89244 14.458 2.54849 13.2913 3.71487C12.1246 4.88126 11.4681 6.46276 11.4658 8.1125V9.41016H10.1716C8.52229 9.41197 6.94105 10.0678 5.77467 11.2339C4.60828 12.4 3.95198 13.981 3.94971 15.6303V46.8892C3.95153 48.5386 4.60768 50.12 5.77417 51.2861C6.94065 52.4523 8.52215 53.108 10.1716 53.1094H37.3158C38.9651 53.1076 40.5463 52.4517 41.7127 51.2856C42.8791 50.1196 43.5354 48.5385 43.5377 46.8892V45.5812H44.8285C46.4758 45.5817 48.056 44.9287 49.2224 43.7655C50.3889 42.6023 51.0462 41.0239 51.0503 39.3766V8.1125C51.0485 6.46291 50.3924 4.88141 49.226 3.71498C48.0595 2.54855 46.478 1.89244 44.8285 1.89062ZM40.4422 46.8892C40.4413 47.7181 40.1116 48.5128 39.5255 49.0989C38.9394 49.685 38.1447 50.0147 37.3158 50.0156H10.1716C9.34269 50.0147 8.548 49.685 7.96188 49.0989C7.37577 48.5128 7.04609 47.7181 7.04518 46.8892V15.6303C7.04518 13.9064 8.44768 12.5039 10.1716 12.5039H37.3158C39.0397 12.5039 40.4422 13.9064 40.4422 15.6303V46.8892ZM47.9549 39.3766C47.9549 41.0919 46.5524 42.4875 44.8285 42.4875H43.5377V15.6303C43.5359 13.9809 42.8797 12.3996 41.7132 11.2334C40.5467 10.0672 38.9652 9.41152 37.3158 9.41016H14.5613V8.1125C14.5613 6.38687 15.9638 4.98438 17.6894 4.98438H44.8285C46.5524 4.98438 47.9549 6.38687 47.9549 8.1125V39.3766Z" fill="#3D74FF"/>
<path d="M23.7427 16.8765C20.6873 16.8801 17.758 18.0954 15.5973 20.2557C13.4366 22.4161 12.2209 25.3452 12.2168 28.4007C12.2168 34.7566 17.3885 39.9266 23.7427 39.9266C30.097 39.9266 35.2687 34.7566 35.2687 28.4007C35.2704 22.0465 30.0987 16.8765 23.7427 16.8765ZM32.0185 26.8538H29.3304C29.2084 24.8687 28.8595 22.9402 28.2768 21.316C29.2453 21.9349 30.0769 22.7456 30.7204 23.6979C31.3639 24.6503 31.8056 25.7243 32.0185 26.8538ZM23.7427 36.8329C23.0776 36.8329 21.5599 34.4197 21.2609 29.9476H26.2229C25.9255 34.4197 24.4079 36.8329 23.7427 36.8329ZM21.2626 26.8538C21.5616 22.3816 23.0793 19.9702 23.7445 19.9702C24.4096 19.9702 25.9273 22.3833 26.2263 26.8538H21.2626ZM19.2087 21.316C18.6277 22.9402 18.2771 24.8704 18.1551 26.8538H15.4687C15.6816 25.7245 16.1233 24.6508 16.7664 23.6984C17.4096 22.7461 18.2407 21.9354 19.2087 21.316ZM15.4687 29.9476H18.1568C18.2788 31.9327 18.6277 33.8629 19.2104 35.4871C18.242 34.8676 17.4106 34.0566 16.7671 33.104C16.1237 32.1513 15.6818 31.0772 15.4687 29.9476ZM28.2768 35.4871C28.8577 33.8629 29.2084 31.9327 29.3304 29.9476H32.0185C31.8054 31.0772 31.3635 32.1513 30.7201 33.104C30.0766 34.0566 29.2451 34.8676 28.2768 35.4871Z" fill="#1D2331"/>
<path d="M30.3221 42.5493H17.165C16.7548 42.5493 16.3613 42.7123 16.0712 43.0024C15.7811 43.2925 15.6182 43.6859 15.6182 44.0962C15.6182 44.5064 15.7811 44.8999 16.0712 45.19C16.3613 45.4801 16.7548 45.6431 17.165 45.6431H30.3204C30.7306 45.6433 31.1242 45.4805 31.4144 45.1906C31.7047 44.9007 31.8679 44.5073 31.8681 44.097C31.8683 43.6868 31.7056 43.2932 31.4156 43.003C31.1257 42.7127 30.7323 42.5495 30.3221 42.5493Z" fill="#3D74FF"/>
</svg>
