<svg width="55" height="55" viewBox="0 0 55 55" fill="none" xmlns="http://www.w3.org/2000/svg">
<path d="M46.1364 27.5017L49.2491 24.389C51.7378 21.9003 53.1094 18.5899 53.1094 15.0699C53.1094 11.5499 51.7378 8.23963 49.2491 5.75088C46.7603 3.26213 43.45 1.89057 39.93 1.89057C36.41 1.89057 33.0997 3.26213 30.6109 5.75088L27.4983 8.86354L24.3822 5.74744C23.1627 4.52096 21.712 3.54855 20.1142 2.88651C18.5163 2.22448 16.803 1.88596 15.0734 1.89057C13.3405 1.88507 11.6237 2.22327 10.0223 2.88559C8.42097 3.54791 6.96683 4.5212 5.74406 5.74916C0.617031 10.8968 0.617031 19.2551 5.74578 24.3821L8.86188 27.4982L5.75094 30.6109C3.26219 33.0996 1.89062 36.4099 1.89062 39.9299C1.89062 43.4499 3.26219 46.7603 5.75094 49.249C8.23969 51.7378 11.55 53.1093 15.07 53.1093C18.59 53.1093 21.9003 51.7378 24.3891 49.249L27.5017 46.1363L30.6178 49.2524C31.8373 50.4789 33.288 51.4513 34.8858 52.1134C36.4837 52.7754 38.197 53.1139 39.9266 53.1093C41.6595 53.1148 43.3763 52.7766 44.9777 52.1143C46.579 51.452 48.0332 50.4787 49.2559 49.2507C54.383 44.1031 54.383 35.7448 49.2542 30.6178L46.1364 27.5017ZM7.93375 22.1959C4.00984 18.272 4.00984 11.8731 7.93375 7.93541C8.86956 6.99584 9.98244 6.25122 11.208 5.74466C12.4335 5.2381 13.7473 4.97967 15.0734 4.98432C17.7633 4.98432 20.2933 6.03276 22.1959 7.93369L25.312 11.0498L11.0516 25.3103L7.93375 22.1959ZM22.2011 47.061C20.2967 48.9654 17.7633 50.0156 15.07 50.0156C12.3767 50.0156 9.84328 48.9654 7.93891 47.061C6.03453 45.1567 4.98438 42.6232 4.98438 39.9299C4.98438 37.2367 6.03453 34.7032 7.93891 32.7988L32.7989 7.93885C34.7033 6.03447 37.2367 4.98432 39.93 4.98432C42.6233 4.98432 45.1567 6.03447 47.0611 7.93885C48.9655 9.84323 50.0156 12.3767 50.0156 15.0699C50.0156 17.7632 48.9655 20.2967 47.0611 22.201L22.2011 47.061ZM47.0662 47.0662C46.1301 48.0052 45.0172 48.7494 43.7917 49.2556C42.5662 49.7619 41.2525 50.0202 39.9266 50.0156C38.6034 50.0189 37.2926 49.76 36.0701 49.2538C34.8476 48.7475 33.7375 48.004 32.8041 47.0662L29.688 43.9501L43.9484 29.6896L47.0645 32.8057C50.9902 36.7296 50.9902 43.1268 47.0662 47.0662Z" fill="#3D74FF"/>
<path d="M24.5698 32.541C24.4262 32.6847 24.3122 32.8553 24.2345 33.043C24.1567 33.2307 24.1167 33.4318 24.1167 33.635C24.1167 33.8382 24.1567 34.0394 24.2345 34.2271C24.3122 34.4148 24.4262 34.5853 24.5698 34.729C24.7135 34.8727 24.8841 34.9866 25.0718 35.0644C25.2595 35.1421 25.4607 35.1821 25.6638 35.1821C25.867 35.1821 26.0682 35.1421 26.2559 35.0644C26.4436 34.9866 26.6141 34.8727 26.7578 34.729C26.9015 34.5853 27.0154 34.4148 27.0932 34.2271C27.1709 34.0394 27.211 33.8382 27.211 33.635C27.211 33.4318 27.1709 33.2307 27.0932 33.043C27.0154 32.8553 26.9015 32.6847 26.7578 32.541C26.6141 32.3974 26.4436 32.2834 26.2559 32.2057C26.0682 32.1279 25.867 32.0879 25.6638 32.0879C25.4607 32.0879 25.2595 32.1279 25.0718 32.2057C24.8841 32.2834 24.7135 32.3974 24.5698 32.541Z" fill="#1D2331"/>
<path d="M29.6504 31.197C30.5047 31.197 31.1973 30.5045 31.1973 29.6501C31.1973 28.7958 30.5047 28.1033 29.6504 28.1033C28.7961 28.1033 28.1035 28.7958 28.1035 29.6501C28.1035 30.5045 28.7961 31.197 29.6504 31.197Z" fill="#1D2331"/>
<path d="M32.5415 24.5695C32.3979 24.7131 32.2839 24.8837 32.2061 25.0714C32.1284 25.2591 32.0884 25.4603 32.0884 25.6635C32.0884 25.8666 32.1284 26.0678 32.2061 26.2555C32.2839 26.4432 32.3979 26.6138 32.5415 26.7574C32.6852 26.9011 32.8557 27.0151 33.0434 27.0928C33.2312 27.1706 33.4323 27.2106 33.6355 27.2106C33.8387 27.2106 34.0399 27.1706 34.2276 27.0928C34.4153 27.0151 34.5858 26.9011 34.7295 26.7574C34.8732 26.6138 34.9871 26.4432 35.0649 26.2555C35.1426 26.0678 35.1826 25.8666 35.1826 25.6635C35.1826 25.4603 35.1426 25.2591 35.0649 25.0714C34.9871 24.8837 34.8732 24.7131 34.7295 24.5695C34.5858 24.4258 34.4153 24.3119 34.2276 24.2341C34.0399 24.1564 33.8387 24.1163 33.6355 24.1163C33.4323 24.1163 33.2312 24.1564 33.0434 24.2341C32.8557 24.3119 32.6852 24.4258 32.5415 24.5695Z" fill="#1D2331"/>
<path d="M21.3643 30.8842C22.2186 30.8842 22.9111 30.1916 22.9111 29.3373C22.9111 28.483 22.2186 27.7904 21.3643 27.7904C20.5099 27.7904 19.8174 28.483 19.8174 29.3373C19.8174 30.1916 20.5099 30.8842 21.3643 30.8842Z" fill="#1D2331"/>
<path d="M25.3501 26.8967C26.2044 26.8967 26.897 26.2042 26.897 25.3499C26.897 24.4955 26.2044 23.803 25.3501 23.803C24.4958 23.803 23.8032 24.4955 23.8032 25.3499C23.8032 26.2042 24.4958 26.8967 25.3501 26.8967Z" fill="#1D2331"/>
<path d="M30.4308 22.4589C30.5852 22.3181 30.7095 22.1474 30.7962 21.9572C30.8829 21.7671 30.9302 21.5613 30.9351 21.3523C30.9401 21.1434 30.9026 20.9356 30.8251 20.7415C30.7475 20.5475 30.6314 20.3711 30.4838 20.2232C30.3362 20.0752 30.1601 19.9587 29.9662 19.8807C29.7723 19.8026 29.5646 19.7647 29.3557 19.7692C29.1467 19.7736 28.9408 19.8204 28.7504 19.9066C28.56 19.9928 28.3891 20.1168 28.2479 20.2709C27.979 20.5645 27.8337 20.9506 27.8421 21.3487C27.8506 21.7468 28.0123 22.1263 28.2936 22.4082C28.5748 22.6901 28.9539 22.8527 29.352 22.8621C29.7501 22.8716 30.1365 22.7271 30.4308 22.4589Z" fill="#1D2331"/>
</svg>
