<svg width="53" height="34" viewBox="0 0 53 34" fill="none" xmlns="http://www.w3.org/2000/svg">
<path d="M50.5625 29.9509H48.5687V15.161H49.4178C50.2308 15.161 50.9544 14.7056 51.3084 13.9751C51.6625 13.2429 51.5662 12.3921 51.0592 11.7545L45.4423 4.70761C45.128 4.31119 44.7279 3.99113 44.2722 3.77145C43.8164 3.55176 43.3169 3.43816 42.8109 3.43917H31.0856L29.0248 1.09651C27.7478 -0.354111 25.2522 -0.354111 23.9734 1.09651L21.9127 3.43917H10.1873C9.15781 3.43917 8.19875 3.90151 7.55766 4.70589L1.94078 11.7545C1.43547 12.3904 1.33922 13.2412 1.69156 13.9734C2.04562 14.7056 2.76922 15.1593 3.58219 15.1593H4.43125V29.9492H2.4375C2.02724 29.9492 1.63379 30.1121 1.34369 30.4022C1.0536 30.6923 0.890625 31.0858 0.890625 31.496C0.890625 31.9063 1.0536 32.2998 1.34369 32.5899C1.63379 32.88 2.02724 33.0429 2.4375 33.0429H50.5625C50.9636 33.0295 51.3438 32.8608 51.6228 32.5723C51.9018 32.2839 52.0578 31.8982 52.0578 31.4969C52.0578 31.0956 51.9018 30.71 51.6228 30.4215C51.3438 30.133 50.9636 29.9643 50.5625 29.9509ZM45.475 29.9509H39.5281V15.161H45.475V29.9509ZM42.8127 6.53292C42.8952 6.53292 42.9725 6.56901 43.0241 6.63604L47.3536 12.069H38.6825L33.8116 6.53464L42.8127 6.53292ZM26.2955 3.14183C26.4295 2.98886 26.5705 2.98886 26.7028 3.14183L36.4344 14.1453V29.9526H32.1014V21.0976C32.1014 19.8618 31.0959 18.8564 29.8602 18.8564H23.1398C21.9041 18.8564 20.8986 19.8618 20.8986 21.0976V29.9526H16.5622L16.5312 14.2381L26.2955 3.14183ZM29.0077 29.9509H23.9923V21.9484H29.0077V29.9509ZM9.97766 6.63433C10.0028 6.60242 10.035 6.57669 10.0716 6.55912C10.1082 6.54154 10.1484 6.53258 10.1891 6.53292H19.1919L14.3209 12.0673H5.64813L9.97766 6.63433ZM7.525 15.161H13.4719V29.9509H7.525V15.161Z" fill="#3D74FF"/>
<path d="M23.8066 14.6282H29.1949C29.6052 14.6282 29.9986 14.4652 30.2887 14.1751C30.5788 13.885 30.7418 13.4916 30.7418 13.0813C30.7418 12.671 30.5788 12.2776 30.2887 11.9875C29.9986 11.6974 29.6052 11.5344 29.1949 11.5344H23.8066C23.3964 11.5344 23.0029 11.6974 22.7128 11.9875C22.4227 12.2776 22.2598 12.671 22.2598 13.0813C22.2598 13.4916 22.4227 13.885 22.7128 14.1751C23.0029 14.4652 23.3964 14.6282 23.8066 14.6282Z" fill="#1D2331"/>
</svg>
